<?xml version="1.0" encoding="UTF-8"?>
<svg id="Layer_1" data-name="Layer 1" xmlns="http://www.w3.org/2000/svg" xmlns:xlink="http://www.w3.org/1999/xlink" viewBox="0 0 750 250">
  <defs>
    <style>
      .cls-1 {
        fill: #fff;
      }

      .cls-2 {
        clip-path: url(#clippath);
      }

      .cls-3 {
        fill: none;
      }
    </style>
    <clipPath id="clippath">
      <rect class="cls-3" x="75.11" y="25.54" width="599.77" height="198.91"/>
    </clipPath>
  </defs>
  <g class="cls-2">
    <path class="cls-1" d="m641.35,175.71h3.88v-28.93l22.78,28.93h3.18v-35.28h-3.88v28.27l-22.23-28.27h-3.73v35.28Zm-36.79-12.9l8.06-17.99,8.01,17.99h-16.08Zm-9.83,12.9h4.08l4.18-9.32h19.2l4.13,9.32h4.28l-16.08-35.53h-3.73l-16.08,35.53Zm-31.95,0h23.84v-3.68h-19.86v-31.6h-3.98v35.28Zm-33.46-16.08v-15.52h8.92c5.7,0,9.48,2.62,9.48,7.66v.1c0,4.64-3.83,7.76-9.68,7.76h-8.72Zm-3.98,16.08h3.98v-12.45h8.57c7.51,0,13.86-3.93,13.86-11.54v-.1c0-6.96-5.24-11.19-13.21-11.19h-13.2v35.28Zm-45.26,0h4.03v-31.6h11.84v-3.68h-27.72v3.68h11.84v31.6Zm-52.92,0h3.88v-28.93l22.78,28.93h3.18v-35.28h-3.88v28.27l-22.23-28.27h-3.73v35.28Zm-37.55,0h25.75v-3.63h-21.77v-12.35h19.25v-3.63h-19.25v-12.05h21.52v-3.63h-25.5v35.28Zm-47.53,0h3.88v-28.53l12.85,18.85h.2l12.85-18.9v28.58h3.98v-35.28h-4.03l-12.85,19.25-12.85-19.25h-4.03v35.28Zm-37.55,0h25.75v-3.63h-21.77v-12.35h19.25v-3.63h-19.25v-12.05h21.52v-3.63h-25.5v35.28Zm-29.43.25h3.53l15.17-35.53h-4.28l-12.6,30.39-12.55-30.39h-4.44l15.17,35.53Zm-40.22-3.33c-8.06,0-13.91-6.55-13.91-14.57v-.1c0-8.01,5.75-14.47,13.81-14.47s13.91,6.55,13.91,14.57v.1c0,8.01-5.75,14.47-13.81,14.47m-.1,3.68c10.74,0,18.04-8.52,18.04-18.25v-.1c0-9.73-7.21-18.14-17.94-18.14s-18.04,8.52-18.04,18.25v.1c0,9.73,7.21,18.14,17.94,18.14m-52.62-17.89v-14.31h10.89c5.69,0,9.02,2.62,9.02,6.96v.1c0,4.54-3.78,7.26-9.07,7.26h-10.84Zm-3.98,17.29h3.98v-13.71h10.08l10.23,13.71h4.89l-10.84-14.41c5.54-1.01,9.58-4.44,9.58-10.28v-.1c0-2.77-1.01-5.24-2.72-6.96-2.22-2.22-5.69-3.53-10.03-3.53h-15.17v35.28Zm-33.47-16.08v-15.52h8.92c5.7,0,9.48,2.62,9.48,7.66v.1c0,4.64-3.83,7.76-9.68,7.76h-8.72Zm-3.98,16.08h3.98v-12.45h8.57c7.51,0,13.86-3.93,13.86-11.54v-.1c0-6.96-5.24-11.19-13.21-11.19h-13.2v35.28Zm-47.53,0h3.88v-28.53l12.85,18.85h.2l12.85-18.9v28.58h3.98v-35.28h-4.03l-12.85,19.25-12.85-19.25h-4.03v35.28Zm-18.09,0h3.98v-35.28h-3.98v35.28Z"/>
    <path class="cls-1" d="m650.83,119.05c14.13,0,24.06-7.3,24.06-20.31v-.19c0-11.42-7.49-16.19-20.78-19.66-11.32-2.9-14.13-4.31-14.13-8.61v-.19c0-3.18,2.9-5.71,8.42-5.71s11.23,2.43,17.04,6.46l7.49-10.86c-6.65-5.34-14.79-8.33-24.34-8.33-13.39,0-22.93,7.86-22.93,19.75v.19c0,13.01,8.52,16.66,21.72,20.03,10.95,2.81,13.2,4.68,13.2,8.33v.19c0,3.84-3.56,6.18-9.45,6.18-7.49,0-13.67-3.09-19.56-7.96l-8.52,10.2c7.86,7.02,17.88,10.48,27.8,10.48m-68.14-.94h47.08v-13.1h-32.67v-52.42h-14.41v65.52Zm-47.17,0h47.08v-13.1h-32.67v-52.42h-14.42v65.52Zm-23.77,0h14.41V52.59h-14.41v65.52Zm-61.96,0h14.41v-20.03l7.58-7.86,20.31,27.89h17.32l-27.89-37.72,26.68-27.8h-17.41l-26.58,28.64v-28.64h-14.41v65.52Zm-29.58.94c14.13,0,24.06-7.3,24.06-20.31v-.19c0-11.42-7.49-16.19-20.78-19.66-11.32-2.9-14.13-4.31-14.13-8.61v-.19c0-3.18,2.9-5.71,8.42-5.71s11.23,2.43,17.04,6.46l7.49-10.86c-6.65-5.34-14.79-8.33-24.34-8.33-13.39,0-22.93,7.86-22.93,19.75v.19c0,13.01,8.52,16.66,21.71,20.03,10.95,2.81,13.2,4.68,13.2,8.33v.19c0,3.84-3.56,6.18-9.45,6.18-7.49,0-13.66-3.09-19.56-7.96l-8.52,10.2c7.86,7.02,17.88,10.48,27.8,10.48m-93.88-.94h47.08v-13.1h-32.67v-52.42h-14.41v65.52Zm-46.71-27.42l8.71-21.25,8.7,21.25h-17.41Zm-25.83,27.42h14.7l5.99-14.69h27.71l5.99,14.69h15.07l-28.08-65.99h-13.29l-28.08,65.99Zm-25.74,1.12c12.64,0,20.12-4.49,26.86-11.7l-9.17-9.27c-5.15,4.68-9.73,7.67-17.22,7.67-11.23,0-19-9.36-19-20.59v-.19c0-11.23,7.96-20.4,19-20.4,6.55,0,11.7,2.81,16.75,7.39l9.17-10.58c-6.08-5.99-13.48-10.11-25.83-10.11-20.12,0-34.16,15.26-34.16,33.88v.19c0,18.81,14.32,33.7,33.6,33.7m-71.23-13.29c-11.61,0-19.84-9.36-19.84-20.59v-.19c0-11.23,8.05-20.4,19.66-20.4s19.84,9.36,19.84,20.59v.19c0,11.23-8.05,20.4-19.66,20.4m-.19,13.29c20.22,0,34.91-15.26,34.91-33.88v-.19c0-18.63-14.51-33.7-34.73-33.7s-34.91,15.26-34.91,33.88v.19c0,18.63,14.51,33.7,34.73,33.7m-79-1.12h47.08v-13.1h-32.67v-52.42h-14.41v65.52Z"/>
    <path class="cls-1" d="m156.53,95.14c5.49,0,9.95-4.45,9.95-9.95s-4.46-9.95-9.95-9.95-9.95,4.45-9.95,9.95,4.46,9.95,9.95,9.95"/>
    <path class="cls-1" d="m518.69,45.44c5.49,0,9.95-4.45,9.95-9.95s-4.45-9.95-9.95-9.95-9.95,4.45-9.95,9.95,4.45,9.95,9.95,9.95"/>
    <path class="cls-1" d="m660.95,224.46c2.11,0,3.46-1.05,4.64-3.94l5.86-14.42h-2.21l-4.48,11.64-5.08-11.64h-2.3l6.35,13.9c-.84,1.97-1.62,2.62-2.86,2.62-.89,0-1.51-.16-2.19-.51l-.7,1.65c.94.46,1.81.7,2.97.7m-27.22-4.4h2.08v-7.97c0-2.56,1.67-4.4,3.89-4.4s3.59,1.54,3.59,4.16v8.21h2.05v-8.05c0-2.75,1.76-4.32,3.86-4.32,2.27,0,3.62,1.51,3.62,4.21v8.15h2.08v-8.64c0-3.46-1.97-5.62-5.18-5.62-2.43,0-3.91,1.24-4.91,2.78-.76-1.57-2.21-2.78-4.48-2.78s-3.59,1.27-4.51,2.65v-2.35h-2.08v13.96Zm-10.8-1.54c-2.94,0-5.16-2.43-5.16-5.43v-.05c0-2.94,2.08-5.4,5.1-5.4s5.18,2.46,5.18,5.45v.05c0,2.94-2.11,5.37-5.13,5.37m-.05,1.86c4.21,0,7.32-3.35,7.32-7.29v-.05c0-3.94-3.08-7.24-7.26-7.24s-7.29,3.35-7.29,7.29v.05c0,3.94,3.05,7.24,7.24,7.24m-22.79-.32h2.08v-7.99c0-2.62,1.78-4.37,4.18-4.37s3.86,1.62,3.86,4.21v8.15h2.08v-8.67c0-3.32-1.97-5.59-5.35-5.59-2.4,0-3.86,1.22-4.78,2.73v-2.43h-2.08v13.96Zm-10.8-1.54c-2.94,0-5.16-2.43-5.16-5.43v-.05c0-2.94,2.08-5.4,5.1-5.4s5.18,2.46,5.18,5.45v.05c0,2.94-2.11,5.37-5.13,5.37m-.05,1.86c4.21,0,7.32-3.35,7.32-7.29v-.05c0-3.94-3.08-7.24-7.26-7.24s-7.29,3.35-7.29,7.29v.05c0,3.94,3.05,7.24,7.24,7.24m-14.88,0c2.62,0,4.29-1.13,5.7-2.7l-1.32-1.24c-1.11,1.19-2.48,2.08-4.27,2.08-2.92,0-5.13-2.4-5.13-5.43v-.05c0-3,2.16-5.4,4.99-5.4,1.89,0,3.13.94,4.24,2.11l1.38-1.46c-1.3-1.38-2.94-2.48-5.59-2.48-4.08,0-7.15,3.35-7.15,7.29v.05c0,3.91,3.08,7.24,7.15,7.24m-20.82-8.13c.3-2.7,2.13-4.7,4.54-4.7,2.75,0,4.21,2.16,4.45,4.7h-8.99Zm0,1.67h11.07c.03-.32.03-.54.03-.73,0-4.1-2.38-7.4-6.51-7.4-3.86,0-6.7,3.24-6.7,7.29,0,4.35,3.13,7.29,6.97,7.29,2.65,0,4.35-1.05,5.75-2.62l-1.3-1.16c-1.13,1.19-2.48,1.97-4.4,1.97-2.46,0-4.62-1.7-4.91-4.64m-15.42,6.13h2.08v-19.71h-2.08v19.71Zm-11.04-1.38c-1.89,0-3.51-1.03-3.51-2.78v-.05c0-1.67,1.48-2.81,4.08-2.81,1.7,0,3.05.3,4.08.59v1.3c0,2.21-2.08,3.75-4.64,3.75m-.41,1.67c2.46,0,4.05-1.13,5.02-2.38v2.08h2.05v-8.53c0-1.78-.49-3.13-1.46-4.1-1-1-2.54-1.54-4.51-1.54s-3.54.49-5.08,1.19l.62,1.7c1.3-.59,2.59-1,4.24-1,2.62,0,4.13,1.3,4.13,3.78v.43c-1.24-.35-2.48-.59-4.27-.59-3.54,0-5.97,1.57-5.97,4.56v.05c0,2.86,2.59,4.35,5.21,4.35m-13.07.03c2.62,0,4.29-1.13,5.7-2.7l-1.32-1.24c-1.11,1.19-2.48,2.08-4.27,2.08-2.92,0-5.13-2.4-5.13-5.43v-.05c0-3,2.16-5.4,5-5.4,1.89,0,3.13.94,4.24,2.11l1.38-1.46c-1.3-1.38-2.94-2.48-5.59-2.48-4.08,0-7.15,3.35-7.15,7.29v.05c0,3.91,3.08,7.24,7.15,7.24m-17.09-1.86c-2.94,0-5.16-2.43-5.16-5.43v-.05c0-2.94,2.08-5.4,5.1-5.4s5.18,2.46,5.18,5.45v.05c0,2.94-2.11,5.37-5.13,5.37m-.05,1.86c4.21,0,7.32-3.35,7.32-7.29v-.05c0-3.94-3.08-7.24-7.26-7.24s-7.29,3.35-7.29,7.29v.05c0,3.94,3.05,7.24,7.24,7.24m-13.07-.32h2.08v-19.71h-2.08v19.71Zm-22.19-7.8c.3-2.7,2.13-4.7,4.54-4.7,2.75,0,4.21,2.16,4.46,4.7h-8.99Zm0,1.67h11.07c.03-.32.03-.54.03-.73,0-4.1-2.38-7.4-6.51-7.4-3.86,0-6.7,3.24-6.7,7.29,0,4.35,3.13,7.29,6.97,7.29,2.65,0,4.35-1.05,5.75-2.62l-1.3-1.16c-1.13,1.19-2.48,1.97-4.4,1.97-2.46,0-4.62-1.7-4.91-4.64m-17.66,6.13h2.08v-7.99c0-2.62,1.78-4.37,4.18-4.37s3.86,1.62,3.86,4.21v8.15h2.08v-8.67c0-3.32-1.97-5.59-5.35-5.59-2.4,0-3.86,1.22-4.78,2.73v-8.18h-2.08v19.71Zm-6.02.24c1,0,1.78-.22,2.51-.59v-1.78c-.73.35-1.32.49-2.02.49-1.4,0-2.35-.62-2.35-2.32v-8.15h4.43v-1.84h-4.43v-4.21h-2.08v4.21h-1.94v1.84h1.94v8.42c0,2.83,1.7,3.94,3.94,3.94m-22.87-.24h2.08v-5.56c0-4.21,2.48-6.4,5.54-6.4h.16v-2.24c-2.65-.11-4.67,1.57-5.7,3.89v-3.64h-2.08v13.96Zm-10.8-1.54c-2.94,0-5.16-2.43-5.16-5.43v-.05c0-2.94,2.08-5.4,5.1-5.4s5.18,2.46,5.18,5.45v.05c0,2.94-2.11,5.37-5.13,5.37m-.05,1.86c4.21,0,7.32-3.35,7.32-7.29v-.05c0-3.94-3.08-7.24-7.26-7.24s-7.29,3.35-7.29,7.29v.05c0,3.94,3.05,7.24,7.24,7.24m-15.01-.32h2.08v-12.12h4.4v-1.78h-4.43v-1.13c0-2,.81-2.97,2.43-2.97.7,0,1.27.14,2.02.35v-1.81c-.67-.24-1.32-.35-2.3-.35-1.27,0-2.29.38-3,1.08-.78.78-1.21,2-1.21,3.59v1.22h-1.92v1.81h1.92v12.12Zm-16.88.27c2.78,0,4.97-1.54,4.97-4.19v-.05c0-2.51-2.32-3.35-4.48-4-1.86-.57-3.59-1.08-3.59-2.4v-.05c0-1.16,1.05-2.02,2.7-2.02,1.35,0,2.84.51,4.13,1.35l.95-1.57c-1.43-.94-3.32-1.54-5.02-1.54-2.75,0-4.75,1.59-4.75,4v.05c0,2.57,2.43,3.32,4.62,3.94,1.84.51,3.48,1.05,3.48,2.46v.05c0,1.35-1.21,2.21-2.89,2.21s-3.32-.65-4.83-1.78l-1.05,1.49c1.57,1.27,3.78,2.05,5.78,2.05m-11.31-.27h2.08v-19.71h-2.08v19.71Zm-6.88,0h2.08v-19.71h-2.08v19.71Zm-6.89,0h2.08v-13.96h-2.08v13.96Zm-.13-17.01h2.38v-2.3h-2.38v2.3Zm-15.2,17.01h2.08v-3.64l2.83-2.86,4.99,6.51h2.48l-6.05-7.97,5.86-5.99h-2.59l-7.53,7.86v-13.61h-2.08v19.71Zm-8.61.27c2.78,0,4.97-1.54,4.97-4.19v-.05c0-2.51-2.32-3.35-4.48-4-1.86-.57-3.59-1.08-3.59-2.4v-.05c0-1.16,1.05-2.02,2.7-2.02,1.35,0,2.84.51,4.13,1.35l.94-1.57c-1.43-.94-3.32-1.54-5.02-1.54-2.75,0-4.75,1.59-4.75,4v.05c0,2.57,2.43,3.32,4.62,3.94,1.84.51,3.48,1.05,3.48,2.46v.05c0,1.35-1.21,2.21-2.89,2.21s-3.32-.65-4.83-1.78l-1.05,1.49c1.57,1.27,3.78,2.05,5.78,2.05m-26.62-8.07c.3-2.7,2.13-4.7,4.54-4.7,2.75,0,4.21,2.16,4.46,4.7h-8.99Zm0,1.67h11.07c.03-.32.03-.54.03-.73,0-4.1-2.38-7.4-6.51-7.4-3.86,0-6.7,3.24-6.7,7.29,0,4.35,3.13,7.29,6.97,7.29,2.65,0,4.35-1.05,5.75-2.62l-1.3-1.16c-1.13,1.19-2.48,1.97-4.4,1.97-2.46,0-4.62-1.7-4.91-4.64m-11.37,6.13h2.08v-5.56c0-4.21,2.48-6.4,5.53-6.4h.16v-2.24c-2.65-.11-4.67,1.57-5.7,3.89v-3.64h-2.08v13.96Zm-11.29.3c2.4,0,3.83-1.22,4.78-2.73v2.43h2.05v-13.96h-2.05v7.99c0,2.62-1.81,4.37-4.19,4.37s-3.86-1.62-3.86-4.21v-8.15h-2.08v8.67c0,3.32,1.97,5.59,5.35,5.59m-11.15-.05c1,0,1.78-.22,2.51-.59v-1.78c-.73.35-1.32.49-2.02.49-1.4,0-2.35-.62-2.35-2.32v-8.15h4.43v-1.84h-4.43v-4.21h-2.08v4.21h-1.94v1.84h1.94v8.42c0,2.83,1.7,3.94,3.94,3.94m-15.96.05c2.4,0,3.83-1.22,4.78-2.73v2.43h2.05v-13.96h-2.05v7.99c0,2.62-1.81,4.37-4.18,4.37s-3.86-1.62-3.86-4.21v-8.15h-2.08v8.67c0,3.32,1.97,5.59,5.35,5.59m-14.04-.3h2.08v-12.12h4.4v-1.78h-4.43v-1.13c0-2,.81-2.97,2.43-2.97.7,0,1.27.14,2.02.35v-1.81c-.68-.24-1.32-.35-2.29-.35-1.27,0-2.29.38-3,1.08-.78.78-1.22,2-1.22,3.59v1.22h-1.92v1.81h1.92v12.12Zm-19.82-2.92c-2.59,0-4.83-1.94-4.83-4.75v-.05c0-2.86,2.19-4.7,4.83-4.7s5.13,1.86,5.13,4.72v.05c0,2.81-2.48,4.72-5.13,4.72m.03,7.29c2.21,0,4.08-.62,5.32-1.86,1.13-1.13,1.78-2.78,1.78-4.94v-11.53h-2.08v2.51c-1.13-1.51-2.83-2.81-5.45-2.81-3.32,0-6.56,2.51-6.56,6.59v.05c0,4.02,3.21,6.53,6.56,6.53,2.57,0,4.27-1.32,5.48-2.94v1.65c0,3.27-2,4.97-5.08,4.97-2,0-3.78-.62-5.37-1.78l-.95,1.62c1.86,1.3,4.02,1.94,6.35,1.94m-22.6-4.37h2.08v-7.99c0-2.62,1.78-4.37,4.18-4.37s3.86,1.62,3.86,4.21v8.15h2.08v-8.67c0-3.32-1.97-5.59-5.35-5.59-2.4,0-3.86,1.22-4.78,2.73v-2.43h-2.08v13.96Zm-6.69,0h2.08v-13.96h-2.08v13.96Zm-.13-17.01h2.38v-2.3h-2.38v2.3Zm-10.72,15.44c-2.59,0-5.05-2.16-5.05-5.4v-.05c0-3.19,2.46-5.37,5.05-5.37s4.91,2.11,4.91,5.4v.05c0,3.38-2.21,5.37-4.91,5.37m-7.05,5.89h2.08v-6.99c1.08,1.57,2.75,2.97,5.35,2.97,3.38,0,6.67-2.7,6.67-7.26v-.05c0-4.59-3.32-7.24-6.67-7.24-2.57,0-4.21,1.43-5.35,3.1v-2.81h-2.08v18.28Zm-10.8-5.86c-2.94,0-5.16-2.43-5.16-5.43v-.05c0-2.94,2.08-5.4,5.1-5.4s5.18,2.46,5.18,5.45v.05c0,2.94-2.11,5.37-5.13,5.37m-.05,1.86c4.21,0,7.32-3.35,7.32-7.29v-.05c0-3.94-3.08-7.24-7.26-7.24s-7.29,3.35-7.29,7.29v.05c0,3.94,3.05,7.24,7.24,7.24m-13.07-.32h2.08v-19.71h-2.08v19.71Zm-14.71-7.8c.3-2.7,2.13-4.7,4.54-4.7,2.75,0,4.21,2.16,4.45,4.7h-8.99Zm0,1.67h11.07c.03-.32.03-.54.03-.73,0-4.1-2.38-7.4-6.51-7.4-3.86,0-6.7,3.24-6.7,7.29,0,4.35,3.13,7.29,6.97,7.29,2.65,0,4.35-1.05,5.75-2.62l-1.3-1.16c-1.13,1.19-2.48,1.97-4.4,1.97-2.46,0-4.62-1.7-4.91-4.64m-11.39,6.24h1.84l6.08-14.07h-2.24l-4.72,11.58-4.7-11.58h-2.29l6.05,14.07Zm-18.52-7.91c.3-2.7,2.13-4.7,4.54-4.7,2.75,0,4.21,2.16,4.45,4.7h-8.99Zm0,1.67h11.07c.03-.32.03-.54.03-.73,0-4.1-2.38-7.4-6.51-7.4-3.86,0-6.7,3.24-6.7,7.29,0,4.35,3.13,7.29,6.97,7.29,2.65,0,4.35-1.05,5.75-2.62l-1.3-1.16c-1.13,1.19-2.48,1.97-4.4,1.97-2.46,0-4.62-1.7-4.91-4.64m-19.66,4.16v-14.96h4.43c4.78,0,7.83,3.29,7.83,7.48v.05c0,4.19-3.05,7.43-7.83,7.43h-4.43Zm-2.13,1.97h6.56c5.94,0,10.04-4.13,10.04-9.45v-.05c0-5.32-4.1-9.4-10.04-9.4h-6.56v18.9Z"/>
  </g>
</svg>